# xmcd CD database file generated by Grip 3.0.7
# 
# Track frame offsets:
#       150
#       20147
#       45137
#       65480
#       85527
#       106070
#       127670
#       152032
#       167065
#       188157
# 
# Disc length: 2819 seconds
# 
# Revision: 4
# Processed by: cddbd v1.5.1PL0 Copyright (c) Steve Scherf et al.
# Submitted via: Grip 3.0.7
# 
DISCID=6c0b010a
DTITLE=Patricia Barber - Split
DYEAR=1989
DGENRE=Blues
TTITLE0=Early Autumn
TTITLE1=Grays
TTITLE2=Alone Together
TTITLE3=Spy Sly
TTITLE4=Easy to Love
TTITLE5=Too Late Now
TTITLE6=Winter Illusion
TTITLE7=Retrograde
TTITLE8=Two for the Road
TTITLE9=Then I'll Be Tired of You
EXTD=
EXTT0=
EXTT1=
EXTT2=
EXTT3=
EXTT4=
EXTT5=
EXTT6=
EXTT7=
EXTT8=
EXTT9=
PLAYORDER=
